PathFileType	4	(X/Y/Z)	G:\Shared drives\HIT\Data\HapticPilot\Subject1\Edited\LHJC1.trc
DataRate	CameraRate	NumFrames	NumMarkers	Units	OrigDataRate	OrigDataStartFrame	OrigNumFrames
50.00	50.00	       4	38	mm	50.00	428	       684
Frame#	Time	r_knee			r_shank(antsup)			r_ankle			r_calc			r_5meta			r_toe			L_knee			L_shank(ant_sup)			L_ankle			L_calc			L_5meta			L_toe			r_mknee			r_mankle			L_mknee			L_mankle			r_sh2			r_sh3			r_sh4			L_sh2			L_sh3			r_thigh1			r_thigh2			r_thigh3			r_thigh4			r_thigh5			L_thigh1			L_thigh2			L_thigh3			L_thigh4			r.ASIS			r.PSIS			L.ASIS			L.PSIS			C7			R_Shoulder			L_Shoulder			Sternum			
		X1	Y1	Z1	X2	Y2	Z2	X3	Y3	Z3	X4	Y4	Z4	X5	Y5	Z5	X6	Y6	Z6	X7	Y7	Z7	X8	Y8	Z8	X9	Y9	Z9	X10	Y10	Z10	X11	Y11	Z11	X12	Y12	Z12	X13	Y13	Z13	X14	Y14	Z14	X15	Y15	Z15	X16	Y16	Z16	X17	Y17	Z17	X18	Y18	Z18	X19	Y19	Z19	X20	Y20	Z20	X21	Y21	Z21	X22	Y22	Z22	X23	Y23	Z23	X24	Y24	Z24	X25	Y25	Z25	X26	Y26	Z26	X27	Y27	Z27	X28	Y28	Z28	X29	Y29	Z29	X30	Y30	Z30	X31	Y31	Z31	X32	Y32	Z32	X33	Y33	Z33	X34	Y34	Z34	X35	Y35	Z35	X36	Y36	Z36	X37	Y37	Z37	X38	Y38	Z38	

428	8.540	756.51288	256.07690	571.23792	774.21985	252.80663	481.59250	709.05286	283.73022	110.78383	621.20667	332.88910	68.80971	817.29456	249.68077	39.32711	861.07562	309.55444	73.66432	779.04254	536.08612	586.53107	800.44061	527.97424	467.51535	676.78583	524.06628	134.99640	593.20447	478.14023	96.33204	792.34705	549.93433	54.10638	831.79871	488.76883	83.83830	761.52075	383.65933	558.89966	725.15887	378.63159	119.00375	787.70349	409.03647	581.09680	698.88135	430.78464	141.49260	766.95575	261.07898	362.08905	698.36670	246.10266	482.92532	684.04865	247.72754	367.80316	717.92322	555.03949	496.28680	691.28229	554.10315	376.68768	798.19550	226.54744	898.91406	809.94098	231.22787	784.44336	765.35681	223.48822	747.40326	684.41193	213.47142	881.01526	702.00519	231.95374	765.56415	834.40466	558.91339	863.16003	853.62677	546.83063	726.59326	721.46088	584.34796	847.49731	742.48810	561.65588	715.13696	818.54456	261.42365	1084.69861	630.00482	345.71756	1133.63977	821.95428	514.39301	1113.02393	634.61316	428.45245	1139.29028	722.35992	399.73529	1621.98779	780.25385	230.87218	1593.64648	783.45618	576.51129	1574.88501	852.18707	392.51779	1533.22107	
429	8.560	757.09808	256.13211	571.18170	774.73602	252.84616	481.50458	709.05157	283.74997	110.77413	621.20953	332.99551	68.73474	817.30573	249.67670	39.31520	861.08606	309.55435	73.63558	781.93048	535.55573	586.42407	803.98676	527.25031	467.55927	682.35345	523.38000	134.22409	598.85638	478.00137	95.35343	798.63129	548.58618	54.03322	837.54102	487.45633	84.01500	762.12134	383.73364	558.86621	725.42615	378.60767	118.98186	790.24274	408.40552	581.21942	703.37598	430.17609	140.58368	767.30469	261.15454	362.01526	698.82275	246.04472	482.85397	684.40552	247.68037	367.80240	721.33307	554.70740	495.78149	695.43146	553.69330	375.96637	798.45917	226.42459	898.92505	810.38324	231.20927	784.51184	765.80066	223.48483	747.37415	684.72815	213.45505	880.91486	702.39105	231.88597	765.51257	835.73212	558.47717	863.23920	855.53107	546.42371	726.91187	723.05017	584.26855	846.95563	744.56836	561.47662	714.81763	818.46320	261.53891	1084.73767	629.95276	346.01807	1133.31970	822.13556	514.37134	1112.95605	634.61395	428.72775	1138.84888	721.83014	400.21625	1621.88684	779.71625	231.33231	1593.69336	782.91852	576.91309	1574.62195	851.60883	392.98068	1533.23376	
430	8.580	757.49872	256.13174	571.10480	775.09467	252.84660	481.42307	707.95844	282.06259	110.43288	621.08478	333.04095	68.84490	817.27008	249.67363	39.30727	861.10260	309.58337	73.55556	784.50659	535.20667	586.33057	806.84705	526.84827	467.62259	687.34705	523.06299	133.63708	603.82428	477.53192	94.14198	804.12140	547.83405	54.04910	842.71283	486.45447	84.36076	762.59607	383.75406	558.76575	725.30414	378.68661	118.99133	792.60760	408.11990	581.24689	708.30487	429.69971	140.46788	767.47784	261.16440	361.88611	699.12390	246.07629	482.82611	684.62573	247.79340	367.77264	724.01617	554.30396	495.45184	698.91895	553.44379	375.60962	798.63989	226.44583	898.90833	810.75787	231.13980	784.53119	766.24359	223.47391	747.38501	685.00659	213.49747	880.84216	702.73303	231.83051	765.44855	837.13104	558.18933	863.42676	857.42493	545.99457	727.08423	724.52533	584.24902	846.46912	746.71497	561.21509	714.44904	818.58600	261.46078	1084.95703	630.01764	346.30820	1133.00696	822.42151	514.36060	1112.90417	634.89026	429.00385	1138.33630	721.26776	400.65268	1621.65649	779.12317	231.67448	1593.64697	782.36731	577.29291	1574.37549	851.14465	393.31998	1533.13269	
431	8.600	757.78485	256.22202	571.08557	775.33276	252.88562	481.41473	707.98682	282.11133	110.44413	621.23004	333.02777	68.82606	817.29541	249.66264	39.32738	861.14075	309.56403	73.58931	786.60669	534.97968	586.31012	809.54840	526.64581	467.82343	691.56018	522.72546	133.19691	608.29041	477.27234	93.31198	808.71826	547.68152	54.14305	847.17255	486.44199	84.48880	763.08636	383.81284	558.76178	725.26843	378.71387	118.91409	796.91345	408.87448	582.34064	712.60712	429.50583	139.93335	767.64453	261.22784	361.92780	699.37799	246.14552	482.81409	684.83795	247.91965	367.70441	726.53882	554.06464	495.11511	702.09552	553.14758	375.27081	799.01965	226.54477	898.92218	811.06641	231.20695	784.55402	766.60193	223.54211	747.43396	685.39423	213.45940	880.84558	703.05933	231.86009	765.42566	838.24915	558.15869	863.56946	858.99078	545.82373	727.26312	725.57727	584.30725	846.17285	748.37476	561.13580	714.38812	818.71759	261.43170	1085.05200	630.07220	346.56628	1132.75378	822.66687	514.41797	1112.86536	635.02905	429.21100	1137.92676	720.67572	401.10336	1621.63220	778.60199	231.95111	1593.65149	781.67303	577.57782	1574.16003	850.57751	393.59793	1533.10986	
